<svg width="191" height="174" viewBox="0 0 191 174" fill="none" xmlns="http://www.w3.org/2000/svg">
    <circle cx="95.586" cy="71.5329" r="71.5329" fill="#20A1FD"/>
    <path d="M135.217 120.502C144.21 102.105 146.503 82.6841 142.957 66.3492C142.862 65.8986 142.665 65.4756 142.382 65.1124C142.099 64.7492 141.737 64.4553 141.323 64.2531C140.91 64.0508 140.455 63.9456 139.995 63.9453C139.534 63.9451 139.08 64.0498 138.666 64.2516C123.598 71.4879 109.682 85.2275 100.689 103.625C91.0241 123.398 89.0977 144.353 93.8421 161.389C110.199 154.668 125.552 140.275 135.217 120.502Z" fill="#9BD5FF"/>
    <path d="M55.7844 120.502C46.7917 102.105 44.4983 82.6841 48.0444 66.3492C48.1395 65.8986 48.336 65.4756 48.6191 65.1124C48.9022 64.7492 49.2643 64.4553 49.678 64.2531C50.0917 64.0508 50.5461 63.9456 51.0066 63.9453C51.4671 63.9451 51.9216 64.0498 52.3356 64.2516C67.4032 71.4879 81.3197 85.2275 90.3123 103.625C99.9776 123.398 101.904 144.353 97.1592 161.389C80.8023 154.668 65.4496 140.275 55.7844 120.502Z" fill="#9BD5FF"/>
    <path d="M74.9888 106.854C74.9888 130.587 83.0465 151.802 95.7111 166.06C108.375 151.802 116.433 130.587 116.433 106.854C116.433 84.5825 109.338 64.5291 97.9989 50.3612C96.8403 48.9134 94.5822 48.9134 93.4232 50.3612C82.0845 64.5291 74.9888 84.5825 74.9888 106.854Z" fill="#4EB5FF"/>
    <path d="M82.9634 106.854C82.9634 85.7513 89.3842 66.7047 99.6985 52.7047C99.1274 51.9295 98.594 51.1051 97.9989 50.3612C96.8403 48.9134 94.5819 48.9134 93.4232 50.3612C82.0841 64.5291 74.9888 84.5825 74.9888 106.854C74.9888 130.588 83.0469 151.802 95.7111 166.06C97.1007 164.496 98.4242 162.833 99.6985 161.107C89.3607 147.103 82.9634 127.983 82.9634 106.854Z" fill="#20A1FD"/>
    <path d="M147.62 164.696C164.823 158.343 178.354 147.225 186.262 134.481C186.51 134.087 186.665 133.642 186.713 133.179C186.762 132.716 186.703 132.248 186.542 131.811C186.381 131.374 186.121 130.98 185.783 130.66C185.445 130.34 185.038 130.102 184.594 129.964C170.3 125.419 152.792 125.765 135.588 132.118C116.932 139.008 102.596 151.501 95.0649 165.595C109.949 171.41 128.964 171.586 147.62 164.696Z" fill="#0C8AE4"/>
    <path d="M43.3224 164.696C26.1194 158.343 12.5887 147.225 4.68051 134.481C4.43207 134.087 4.27757 133.642 4.22897 133.179C4.18038 132.716 4.239 132.248 4.4003 131.811C4.56159 131.374 4.82123 130.98 5.15912 130.66C5.497 130.34 5.90406 130.102 6.34877 129.964C20.642 125.419 38.1505 125.765 55.3539 132.118C74.0099 139.008 88.3467 151.501 95.8774 165.595C80.9936 171.41 61.9784 171.586 43.3224 164.696Z" fill="#0C8AE4"/>
    <path d="M122.713 110.745C138.461 94.9971 157.659 85.8344 175.695 83.8341C177.538 83.6297 179.134 85.2263 178.93 87.0695C176.929 105.106 167.767 124.303 152.019 140.051C135.237 156.833 114.538 166.136 95.5006 167.263C96.6276 148.227 105.931 127.527 122.713 110.745ZM68.2881 110.745C52.54 94.9971 33.3427 85.8344 15.3067 83.8341C13.4635 83.6297 11.8669 85.2263 12.0713 87.0695C14.0719 105.106 23.2343 124.303 38.9824 140.051C55.765 156.833 76.4638 166.136 95.5006 167.263C94.374 148.227 85.0703 127.527 68.2881 110.745Z" fill="#20A1FD"/>
    <path d="M45.711 133.323C31.1641 118.776 22.3155 101.296 19.4617 84.4963C18.0747 84.2605 16.6825 83.9867 15.3071 83.8341C13.4635 83.6297 11.8672 85.2263 12.0717 87.0695C14.0719 105.106 23.2347 124.303 38.9828 140.051C55.765 156.833 76.4641 166.136 95.501 167.263C95.3525 164.752 95.0519 162.211 94.6202 159.654C77.7981 156.814 60.2792 147.891 45.711 133.323Z" fill="#20A1FD"/>
    <path d="M190.343 130.099C190.029 129.721 189.608 129.447 189.151 129.269C185.754 127.947 182.133 126.902 178.386 126.164C176.87 125.865 175.315 126.764 174.979 128.273C174.898 128.638 174.89 129.015 174.957 129.383C175.024 129.751 175.164 130.102 175.368 130.415C175.573 130.728 175.838 130.996 176.149 131.205C176.459 131.413 176.808 131.558 177.175 131.629C179.521 132.084 181.838 132.68 184.112 133.413C176.343 146.082 163.02 156.566 147.06 162.459C135.606 166.688 123.647 168.232 112.581 167.075C127.452 162.754 141.952 154.074 153.997 142.029C170.574 125.451 180.784 104.225 182.019 83.7809C182.055 83.19 181.936 82.5909 181.627 82.0858C181.363 81.6494 180.985 81.2933 180.534 81.056C180.082 80.8187 179.575 80.7093 179.065 80.7395C168.434 81.3688 157.59 84.4323 147.295 89.5523C147.984 79.9673 147.133 70.5524 144.779 62.0604C144.648 61.587 144.417 61.1401 144.073 60.7894C143.683 60.3885 143.182 60.1134 142.634 59.9995C142.087 59.8856 141.518 59.9382 141 60.1504C131.732 63.9577 122.795 69.9753 114.935 77.6634C111.285 65.5103 105.404 54.6028 97.6416 45.8456C97.3159 45.4781 96.913 45.1778 96.4501 45.0144C95.9236 44.8254 95.3526 44.7983 94.8106 44.9365C94.2686 45.0747 93.7803 45.372 93.4086 45.79C85.6407 54.5353 79.7459 65.5129 76.0848 77.6828C68.2396 70.0044 59.3194 63.9905 50.0679 60.1783C49.6139 59.9911 49.12 59.8989 48.632 59.9556C48.0762 60.0173 47.5516 60.2439 47.1256 60.6061C46.6996 60.9683 46.3917 61.4497 46.2415 61.9884C43.872 70.4994 43.0139 79.9408 43.7048 89.5531C33.4103 84.433 22.5666 81.3696 11.9348 80.7402C10.8239 80.6738 9.74875 81.2748 9.2373 82.3376C9.02467 82.7793 8.9508 83.2758 8.98028 83.7653C10.2102 104.215 20.4216 125.448 37.0034 142.03C49.0494 154.076 63.5501 162.755 78.4212 167.077C67.3544 168.234 55.3949 166.689 43.9398 162.46C27.9806 156.568 14.6569 146.084 6.88824 133.415C9.1326 132.691 11.4181 132.101 13.7325 131.649C15.2236 131.356 16.2942 129.945 16.0536 128.444C15.8018 126.874 14.3025 125.836 12.7559 126.138C8.95864 126.878 5.28974 127.932 1.85026 129.271C1.39253 129.449 0.971739 129.723 0.657261 130.1C0.297166 130.528 0.0735641 131.055 0.0152558 131.611C-0.0430525 132.168 0.0666039 132.729 0.330101 133.223C8.41287 148.346 23.6014 160.916 42.0015 167.709C51.6201 171.261 61.5946 173.042 71.2087 173.042C77.7825 173.041 84.1862 172.205 90.19 170.534C91.8202 170.08 93.4997 169.831 95.1918 169.831H95.8066C97.4987 169.831 99.1785 170.081 100.809 170.534C106.813 172.205 113.215 173.042 119.79 173.042C129.403 173.042 139.38 171.261 148.997 167.71C167.397 160.916 182.586 148.346 190.669 133.223C190.933 132.729 191.043 132.168 190.985 131.611C190.927 131.054 190.703 130.527 190.343 130.099ZM50.8419 66.632C59.281 70.596 67.3645 76.5375 74.4199 83.966C72.6815 91.5041 71.7705 99.4082 71.7705 107.455C71.7705 108.417 71.7851 109.38 71.8108 110.343C71.3016 109.812 70.7869 109.286 70.2668 108.766C63.959 102.458 56.977 97.0748 49.6221 92.7545C48.5861 83.7183 49.0047 74.7737 50.8419 66.632ZM40.9607 138.072C26.1948 123.305 16.7945 104.715 14.8334 86.5956C32.9525 88.5563 51.5436 97.957 66.3095 112.723C81.0754 127.489 90.4758 146.08 92.4369 164.199C74.318 162.238 55.727 152.838 40.9607 138.072ZM95.5007 150.846C92.1858 139.076 86.1354 127.52 77.8388 117.207C77.5255 113.965 77.3677 110.711 77.3658 107.455C77.3658 86.3408 83.9415 66.3276 95.5014 51.9777C105.704 64.6247 112.017 81.5512 113.366 100.035C113.424 100.773 113.771 101.457 114.332 101.939C114.893 102.421 115.622 102.661 116.359 102.608C117.097 102.554 117.783 102.21 118.268 101.652C118.753 101.093 118.997 100.366 118.947 99.6279C118.555 94.2616 117.763 89.0162 116.599 83.9477C123.65 76.5278 131.727 70.593 140.159 66.632C141.997 74.7737 142.415 83.7183 141.379 92.7545C134.024 97.0751 127.042 102.458 120.735 108.766C108.511 120.991 99.7545 135.743 95.5007 150.846ZM124.691 112.723C139.458 97.957 158.048 88.5563 176.168 86.5956C174.207 104.715 164.806 123.306 150.04 138.072C135.274 152.838 116.683 162.238 98.5641 164.199C100.525 146.08 109.926 127.489 124.691 112.723Z" fill="black"/>
</svg>
