<svg width="40" height="40" viewBox="0 0 40 40" fill="none" xmlns="http://www.w3.org/2000/svg">
    <rect width="40" height="40" rx="20" fill="#20A1FD"/>
    <path fill-rule="evenodd" clip-rule="evenodd" d="M10 24.1436V12.9978C10 11.8996 10.8863 11.0075 11.9824 11.0749C12.9588 11.1349 14.1135 11.2535 15 11.4874C16.0492 11.7643 17.2961 12.354 18.2823 12.8755C18.5894 13.0378 18.9159 13.1505 19.2502 13.214V28.3926C18.9472 28.3258 18.6516 28.218 18.3724 28.0692C17.3729 27.5365 16.0815 26.9187 15 26.6334C14.1233 26.402 12.9843 26.2835 12.0149 26.2228C10.906 26.1535 10 25.2546 10 24.1436ZM13.1821 16.2724C12.7802 16.1719 12.373 16.4163 12.2726 16.8181C12.1721 17.2199 12.4164 17.6271 12.8183 17.7276L16.8183 18.7276C17.2201 18.8281 17.6273 18.5837 17.7278 18.1819C17.8282 17.7801 17.5839 17.3729 17.1821 17.2724L13.1821 16.2724ZM13.1821 20.2724C12.7802 20.1719 12.373 20.4163 12.2726 20.8181C12.1721 21.2199 12.4164 21.6271 12.8183 21.7276L16.8183 22.7276C17.2201 22.8281 17.6273 22.5837 17.7278 22.1819C17.8282 21.7801 17.5839 21.3729 17.1821 21.2724L13.1821 20.2724Z" fill="white"/>
    <path fill-rule="evenodd" clip-rule="evenodd" d="M20.7502 28.3925C21.0531 28.3257 21.3485 28.218 21.6276 28.0692C22.6271 27.5365 23.9185 26.9187 25 26.6334C25.8767 26.402 27.0157 26.2835 27.9851 26.2228C29.094 26.1535 30 25.2546 30 24.1436V12.9332C30 11.8607 29.1538 10.9804 28.082 11.0177C26.9534 11.0571 25.5469 11.174 24.5 11.4874C23.5924 11.7592 22.5353 12.3042 21.6738 12.8028C21.3824 12.9714 21.0709 13.0953 20.7502 13.1739V28.3925ZM27.1821 17.7276C27.5839 17.6271 27.8282 17.2199 27.7278 16.8181C27.6273 16.4163 27.2201 16.1719 26.8183 16.2724L22.8183 17.2724C22.4164 17.3729 22.1721 17.7801 22.2726 18.1819C22.373 18.5837 22.7802 18.8281 23.1821 18.7276L27.1821 17.7276ZM27.1821 21.7276C27.5839 21.6271 27.8282 21.2199 27.7278 20.8181C27.6273 20.4163 27.2201 20.1719 26.8183 20.2724L22.8183 21.2724C22.4164 21.3729 22.1721 21.7801 22.2726 22.1819C22.373 22.5837 22.7802 22.8281 23.1821 22.7276L27.1821 21.7276Z" fill="white"/>
</svg>
