<svg width="25" height="25" viewBox="0 0 25 25" fill="none" xmlns="http://www.w3.org/2000/svg">
    <path d="M20.1872 14.5931L20.3706 12.8884C20.4684 11.9789 20.533 11.3783 20.4823 10.9999L20.5 11C21.3284 11 22 10.3284 22 9.5C22 8.67157 21.3284 8 20.5 8C19.6716 8 19 8.67157 19 9.5C19 9.87466 19.1374 10.2172 19.3645 10.4801C19.0384 10.6814 18.6122 11.106 17.9705 11.7451L17.9705 11.7451C17.4762 12.2375 17.229 12.4837 16.9533 12.5219C16.8005 12.543 16.6449 12.5213 16.5038 12.4592C16.2492 12.347 16.0794 12.0427 15.7399 11.434L13.9505 8.2254C13.741 7.84987 13.5657 7.53557 13.4077 7.28265C14.056 6.95187 14.5 6.27778 14.5 5.5C14.5 4.39543 13.6046 3.5 12.5 3.5C11.3954 3.5 10.5 4.39543 10.5 5.5C10.5 6.27778 10.944 6.95187 11.5923 7.28265C11.4343 7.53559 11.259 7.84984 11.0495 8.2254L9.26006 11.434C8.92056 12.0427 8.75081 12.347 8.49621 12.4592C8.35514 12.5213 8.19947 12.543 8.0467 12.5219C7.77097 12.4837 7.52381 12.2375 7.0295 11.7451C6.38787 11.106 5.96156 10.6814 5.63553 10.4801C5.86264 10.2172 6 9.87466 6 9.5C6 8.67157 5.32843 8 4.5 8C3.67157 8 3 8.67157 3 9.5C3 10.3284 3.67157 11 4.5 11L4.51771 10.9999C4.46702 11.3783 4.53162 11.9789 4.62945 12.8884L4.8128 14.5931C4.91458 15.5393 4.99921 16.4396 5.10287 17.25H19.8971C20.0008 16.4396 20.0854 15.5393 20.1872 14.5931Z" fill="white"/>
    <path d="M11.4121 21.5H13.5879C16.4239 21.5 17.8418 21.5 18.7879 20.6532C19.2009 20.2835 19.4623 19.6172 19.651 18.75H5.34896C5.53765 19.6172 5.79913 20.2835 6.21208 20.6532C7.15817 21.5 8.57613 21.5 11.4121 21.5Z" fill="white"/>
</svg>
