<svg width="41" height="40" viewBox="0 0 41 40" fill="none" xmlns="http://www.w3.org/2000/svg">
    <rect x="0.5" width="40" height="40" rx="20" fill="#20A1FD"/>
    <path fill-rule="evenodd" clip-rule="evenodd" d="M19.5487 29.5277L19.7988 29.1053C20.1996 28.4282 20.3999 28.0897 20.7191 27.9009C21.0383 27.712 21.4547 27.6987 22.2874 27.6721C23.0682 27.6471 23.593 27.579 24.0417 27.3931C24.9864 27.0018 25.7369 26.2513 26.1282 25.3066C26.4217 24.5981 26.4217 23.6999 26.4217 21.9035V21.1324C26.4217 18.6083 26.4217 17.3462 25.8536 16.4191C25.5357 15.9003 25.0995 15.4642 24.5807 15.1463C23.6536 14.5781 22.3916 14.5781 19.8675 14.5781H17.5542C15.0301 14.5781 13.7681 14.5781 12.841 15.1463C12.3222 15.4642 11.886 15.9003 11.5681 16.4191C11 17.3462 11 18.6083 11 21.1324V21.9035C11 23.6999 11 24.5981 11.2935 25.3066C11.6848 26.2513 12.4353 27.0018 13.38 27.3931C13.8287 27.579 14.3535 27.6471 15.1343 27.6721C15.967 27.6987 16.3833 27.712 16.7025 27.9009C17.0217 28.0897 17.2221 28.4282 17.6229 29.1053L17.8729 29.5277C18.2455 30.1572 19.1762 30.1572 19.5487 29.5277ZM22.0843 22.289C22.6167 22.289 23.0482 21.8574 23.0482 21.3251C23.0482 20.7928 22.6167 20.3613 22.0843 20.3613C21.552 20.3613 21.1205 20.7928 21.1205 21.3251C21.1205 21.8574 21.552 22.289 22.0843 22.289ZM19.6747 21.3251C19.6747 21.8574 19.2432 22.289 18.7108 22.289C18.1785 22.289 17.747 21.8574 17.747 21.3251C17.747 20.7928 18.1785 20.3613 18.7108 20.3613C19.2432 20.3613 19.6747 20.7928 19.6747 21.3251ZM15.3373 22.289C15.8697 22.289 16.3012 21.8574 16.3012 21.3251C16.3012 20.7928 15.8697 20.3613 15.3373 20.3613C14.805 20.3613 14.3735 20.7928 14.3735 21.3251C14.3735 21.8574 14.805 22.289 15.3373 22.289Z" fill="white"/>
    <path d="M24.1696 10C25.3214 9.99999 26.2372 9.99999 26.9717 10.0698C27.7249 10.1414 28.3617 10.2915 28.9289 10.6392C29.5125 10.9968 30.0032 11.4875 30.3608 12.0711C30.7085 12.6384 30.8586 13.2751 30.9302 14.0283C31 14.7628 31 15.6787 31 16.8304V17.617C31 18.4367 31 19.0886 30.9639 19.6173C30.927 20.1581 30.85 20.6226 30.6698 21.0575C30.2296 22.1202 29.3853 22.9646 28.3225 23.4048C28.2959 23.4158 28.2692 23.4265 28.2423 23.4367C28.114 23.4858 28.0042 23.5278 27.9077 23.5591C27.9217 23.0903 27.9217 22.5563 27.9217 21.9537V21.0614C27.9217 19.8598 27.9217 18.8532 27.8439 18.0349C27.7625 17.1782 27.5853 16.3742 27.1325 15.6354C26.6909 14.9148 26.0851 14.3089 25.3645 13.8673C24.6256 13.4145 23.8217 13.2373 22.9649 13.1559C22.1466 13.0781 21.14 13.0781 19.9384 13.0781H17.4833C16.6672 13.0781 15.9411 13.0781 15.3028 13.1025C15.3325 12.9994 15.3732 12.8813 15.4211 12.7426C15.5024 12.5068 15.6052 12.2838 15.7355 12.0711C16.0932 11.4875 16.5839 10.9968 17.1675 10.6392C17.7347 10.2915 18.3715 10.1414 19.1247 10.0698C19.8592 9.99999 20.775 9.99999 21.9268 10H24.1696Z" fill="white"/>
</svg>
