<svg width="41" height="40" viewBox="0 0 41 40" fill="none" xmlns="http://www.w3.org/2000/svg">
    <rect x="0.5" width="40" height="40" rx="20" fill="#20A1FD"/>
    <path fill-rule="evenodd" clip-rule="evenodd" d="M12 18.4167C12 15.2191 12 13.6203 12.3775 13.0824C12.755 12.5445 14.2583 12.03 17.2649 11.0008L17.8377 10.8047C19.405 10.2682 20.1886 10 21 10C21.8114 10 22.595 10.2682 24.1623 10.8047L24.7351 11.0008C27.7417 12.03 29.245 12.5445 29.6225 13.0824C30 13.6203 30 15.2191 30 18.4167V19.9914C30 25.6294 25.761 28.3655 23.1014 29.5273C22.38 29.8424 22.0193 30 21 30C19.9807 30 19.62 29.8424 18.8986 29.5273C16.239 28.3655 12 25.6294 12 19.9914V18.4167ZM23 17C23 18.1046 22.1046 19 21 19C19.8954 19 19 18.1046 19 17C19 15.8954 19.8954 15 21 15C22.1046 15 23 15.8954 23 17ZM21 25C25 25 25 24.1046 25 23C25 21.8954 23.2091 21 21 21C18.7909 21 17 21.8954 17 23C17 24.1046 17 25 21 25Z" fill="white"/>
</svg>
