<svg width="40" height="40" viewBox="0 0 40 40" fill="none" xmlns="http://www.w3.org/2000/svg">
    <rect width="40" height="40" rx="20" fill="#20A1FD"/>
    <path d="M25.7187 23.1879C24.8631 23.1876 24.0414 23.5227 23.4298 24.1212L17.4687 20.7696C17.5912 20.2641 17.5912 19.7367 17.4687 19.2312L23.428 15.8796C23.9847 16.4212 24.716 16.7469 25.4909 16.7984C26.2659 16.85 27.0339 16.624 27.6574 16.161C28.281 15.698 28.7194 15.0282 28.8941 14.2714C29.0689 13.5147 28.9686 12.7205 28.6112 12.0309C28.2538 11.3414 27.6627 10.8015 26.9436 10.5081C26.2245 10.2146 25.4245 10.1866 24.6867 10.4292C23.9489 10.6718 23.3215 11.169 22.9169 11.832C22.5122 12.4949 22.3567 13.2802 22.4783 14.0473L16.3784 17.4785C15.8993 17.0793 15.3163 16.825 14.6978 16.7452C14.0793 16.6654 13.4509 16.7635 12.8862 17.0281C12.3214 17.2926 11.8438 17.7126 11.5092 18.2389C11.1745 18.7651 10.9968 19.3758 10.9968 19.9995C10.9968 20.6231 11.1745 21.2338 11.5092 21.7601C11.8438 22.2863 12.3214 22.7063 12.8862 22.9709C13.4509 23.2354 14.0793 23.3335 14.6978 23.2538C15.3163 23.174 15.8993 22.9196 16.3784 22.5204L22.4783 25.9535C22.3728 26.6162 22.4731 27.2953 22.7656 27.8993C23.058 28.5032 23.5286 29.003 24.1139 29.3312C24.6992 29.6594 25.3711 29.8002 26.0389 29.7348C26.7067 29.6693 27.3385 29.4006 27.8489 28.965C28.3593 28.5294 28.7239 27.9477 28.8935 27.2985C29.0631 26.6492 29.0295 25.9636 28.7974 25.334C28.5652 24.7044 28.1456 24.1611 27.5952 23.7774C27.0447 23.3936 26.3898 23.1879 25.7187 23.1879Z" fill="white"/>
</svg>
